<?xml version="1.0" ?><svg height="64" width="64" id="Layer_1" style="enable-background:new 0 0 512 512;" version="1.1" viewBox="0 0 512 512" xml:space="preserve" xmlns="http://www.w3.org/2000/svg" xmlns:xlink="http://www.w3.org/1999/xlink"><style type="text/css">
	.st0{fill:#9F9F9F;}
	.st1{fill:#9F9F9F;}
	.st2{fill:#9F9F9F;}
	.st3{fill:#9F9F9F;}
	.st4{fill:#9F9F9F;}
</style><g><g><g><polygon class="st0" id="XMLID_9_" points="491.4,131.1 506,161.6 302,259.4 268.6,208 23,350.6 6,321.3 279.4,162.6 314.1,216         "/></g><g><polygon class="st1" id="XMLID_8_" points="320.4,193.8 345.6,181.7 345.6,93.7 275.8,93.7 275.8,93.7 275.8,144.6 285,139.3         "/><polygon class="st1" id="XMLID_7_" points="275.8,251 275.8,418.3 275.8,418.3 345.6,418.3 345.6,257.7 295.7,281.6    "/><polygon class="st2" id="XMLID_6_" points="381.3,240.6 381.3,418.3 451.1,418.3 451.1,207.2    "/><polygon class="st2" id="XMLID_5_" points="451.1,93.7 381.3,93.7 381.3,164.6 451.1,131.2    "/><polygon class="st3" id="XMLID_4_" points="240.2,93.7 170.4,93.7 170.4,205.8 240.2,165.3    "/><polygon class="st3" id="XMLID_3_" points="170.4,418.3 240.2,418.3 240.2,244.6 170.4,285.1    "/><polygon class="st4" id="XMLID_2_" points="64.9,418.3 64.9,418.3 134.7,418.3 134.7,305.8 64.9,346.3    "/><polygon class="st4" id="XMLID_1_" points="134.7,93.7 64.9,93.7 64.9,267.1 134.7,226.5    "/></g></g></g></svg>